<mxfile host="app.diagrams.net" modified="2023-03-23T14:53:37.934Z" agent="5.0 (Windows NT 10.0; Win64; x64) AppleWebKit/537.36 (KHTML, like Gecko) Chrome/111.0.0.0 Safari/537.36" etag="VURIGpp5SLckth1vGQ7V" version="21.0.10" type="github">
  <diagram name="PÃ¡gina-1" id="cRUeGpbb5Z79ohCBJ8_P">
    <mxGraphModel dx="794" dy="740" grid="1" gridSize="10" guides="1" tooltips="1" connect="1" arrows="1" fold="1" page="1" pageScale="1" pageWidth="827" pageHeight="1169" math="0" shadow="0">
      <root>
        <mxCell id="0" />
        <mxCell id="1" parent="0" />
        <mxCell id="NheQscauywyLOlEdrm4N-3" value="TELEFONO" style="ellipse;whiteSpace=wrap;html=1;" vertex="1" parent="1">
          <mxGeometry x="180" y="150" width="120" height="40" as="geometry" />
        </mxCell>
        <mxCell id="NheQscauywyLOlEdrm4N-4" value="EMAIL&amp;nbsp;" style="ellipse;whiteSpace=wrap;html=1;" vertex="1" parent="1">
          <mxGeometry x="354" y="110" width="120" height="40" as="geometry" />
        </mxCell>
        <mxCell id="NheQscauywyLOlEdrm4N-7" value="PASSWORD" style="ellipse;whiteSpace=wrap;html=1;" vertex="1" parent="1">
          <mxGeometry x="520" y="150" width="120" height="40" as="geometry" />
        </mxCell>
        <mxCell id="NheQscauywyLOlEdrm4N-13" value="A. MATERNO&amp;nbsp;" style="ellipse;whiteSpace=wrap;html=1;" vertex="1" parent="1">
          <mxGeometry x="354" y="410" width="120" height="40" as="geometry" />
        </mxCell>
        <mxCell id="NheQscauywyLOlEdrm4N-14" value="A. PATERNO&amp;nbsp;" style="ellipse;whiteSpace=wrap;html=1;" vertex="1" parent="1">
          <mxGeometry x="190" y="320" width="120" height="40" as="geometry" />
        </mxCell>
        <mxCell id="NheQscauywyLOlEdrm4N-15" value="NOMBRE&amp;nbsp;" style="ellipse;whiteSpace=wrap;html=1;" vertex="1" parent="1">
          <mxGeometry x="180" y="230" width="120" height="40" as="geometry" />
        </mxCell>
        <mxCell id="NheQscauywyLOlEdrm4N-18" value="" style="endArrow=none;html=1;rounded=0;exitX=0.11;exitY=1;exitDx=0;exitDy=0;exitPerimeter=0;endFill=0;" edge="1" parent="1" source="NheQscauywyLOlEdrm4N-33">
          <mxGeometry width="50" height="50" relative="1" as="geometry">
            <mxPoint x="367.57359312880703" y="308.2842712474619" as="sourcePoint" />
            <mxPoint x="300" y="330" as="targetPoint" />
          </mxGeometry>
        </mxCell>
        <mxCell id="NheQscauywyLOlEdrm4N-19" value="" style="endArrow=none;html=1;rounded=0;endFill=0;" edge="1" parent="1">
          <mxGeometry width="50" height="50" relative="1" as="geometry">
            <mxPoint x="410" y="300" as="sourcePoint" />
            <mxPoint x="410" y="410" as="targetPoint" />
          </mxGeometry>
        </mxCell>
        <mxCell id="NheQscauywyLOlEdrm4N-20" value="" style="endArrow=none;html=1;rounded=0;entryX=0;entryY=0.5;entryDx=0;entryDy=0;exitX=0.9;exitY=1.025;exitDx=0;exitDy=0;exitPerimeter=0;endFill=0;" edge="1" parent="1" source="NheQscauywyLOlEdrm4N-33">
          <mxGeometry width="50" height="50" relative="1" as="geometry">
            <mxPoint x="456.43743795219916" y="305.3295116102904" as="sourcePoint" />
            <mxPoint x="520" y="340" as="targetPoint" />
          </mxGeometry>
        </mxCell>
        <mxCell id="NheQscauywyLOlEdrm4N-22" value="" style="endArrow=none;html=1;rounded=0;entryX=0;entryY=0.5;entryDx=0;entryDy=0;exitX=0.69;exitY=-0.05;exitDx=0;exitDy=0;exitPerimeter=0;endFill=0;" edge="1" parent="1" source="NheQscauywyLOlEdrm4N-33" target="NheQscauywyLOlEdrm4N-7">
          <mxGeometry width="50" height="50" relative="1" as="geometry">
            <mxPoint x="446" y="247.03999999999996" as="sourcePoint" />
            <mxPoint x="430" y="260" as="targetPoint" />
          </mxGeometry>
        </mxCell>
        <mxCell id="NheQscauywyLOlEdrm4N-24" value="" style="endArrow=none;html=1;rounded=0;exitX=1;exitY=0.5;exitDx=0;exitDy=0;endFill=0;" edge="1" parent="1" source="NheQscauywyLOlEdrm4N-33">
          <mxGeometry width="50" height="50" relative="1" as="geometry">
            <mxPoint x="470" y="280" as="sourcePoint" />
            <mxPoint x="520" y="250" as="targetPoint" />
          </mxGeometry>
        </mxCell>
        <mxCell id="NheQscauywyLOlEdrm4N-25" value="" style="endArrow=none;html=1;rounded=0;entryX=0.5;entryY=1;entryDx=0;entryDy=0;exitX=0.5;exitY=0;exitDx=0;exitDy=0;endFill=0;" edge="1" parent="1" source="NheQscauywyLOlEdrm4N-33" target="NheQscauywyLOlEdrm4N-4">
          <mxGeometry width="50" height="50" relative="1" as="geometry">
            <mxPoint x="410" y="240" as="sourcePoint" />
            <mxPoint x="430" y="260" as="targetPoint" />
          </mxGeometry>
        </mxCell>
        <mxCell id="NheQscauywyLOlEdrm4N-26" value="" style="endArrow=none;html=1;rounded=0;exitX=0.16;exitY=0.05;exitDx=0;exitDy=0;exitPerimeter=0;endFill=0;" edge="1" parent="1" source="NheQscauywyLOlEdrm4N-33" target="NheQscauywyLOlEdrm4N-3">
          <mxGeometry width="50" height="50" relative="1" as="geometry">
            <mxPoint x="360" y="250" as="sourcePoint" />
            <mxPoint x="310" y="190" as="targetPoint" />
          </mxGeometry>
        </mxCell>
        <mxCell id="NheQscauywyLOlEdrm4N-27" value="" style="endArrow=none;html=1;rounded=0;entryX=0.958;entryY=0.35;entryDx=0;entryDy=0;entryPerimeter=0;exitX=0;exitY=0.5;exitDx=0;exitDy=0;endFill=0;" edge="1" parent="1" source="NheQscauywyLOlEdrm4N-33" target="NheQscauywyLOlEdrm4N-15">
          <mxGeometry width="50" height="50" relative="1" as="geometry">
            <mxPoint x="350" y="280" as="sourcePoint" />
            <mxPoint x="430" y="260" as="targetPoint" />
          </mxGeometry>
        </mxCell>
        <mxCell id="NheQscauywyLOlEdrm4N-30" value="ID_USUARIO" style="ellipse;whiteSpace=wrap;html=1;align=center;fontStyle=4;" vertex="1" parent="1">
          <mxGeometry x="510" y="330" width="100" height="40" as="geometry" />
        </mxCell>
        <mxCell id="NheQscauywyLOlEdrm4N-32" value="&lt;span style=&quot;border-bottom: 1px dotted&quot;&gt;ID_PLANTEL&lt;/span&gt;" style="ellipse;whiteSpace=wrap;html=1;align=center;" vertex="1" parent="1">
          <mxGeometry x="520" y="230" width="100" height="40" as="geometry" />
        </mxCell>
        <mxCell id="NheQscauywyLOlEdrm4N-33" value="USUARIO" style="rounded=1;arcSize=10;whiteSpace=wrap;html=1;align=center;" vertex="1" parent="1">
          <mxGeometry x="364" y="260" width="100" height="40" as="geometry" />
        </mxCell>
        <mxCell id="NheQscauywyLOlEdrm4N-34" value="ID_PLANTEL" style="rounded=1;arcSize=10;whiteSpace=wrap;html=1;align=center;" vertex="1" parent="1">
          <mxGeometry x="360" y="740" width="100" height="40" as="geometry" />
        </mxCell>
        <mxCell id="NheQscauywyLOlEdrm4N-35" value="Attribute" style="ellipse;whiteSpace=wrap;html=1;align=center;" vertex="1" parent="1">
          <mxGeometry x="190" y="640" width="100" height="40" as="geometry" />
        </mxCell>
      </root>
    </mxGraphModel>
  </diagram>
</mxfile>
